<svg id="Capa_1" data-name="Capa 1" xmlns="http://www.w3.org/2000/svg" xmlns:xlink="http://www.w3.org/1999/xlink" viewBox="0 0 381 171"><defs><style>.cls-1{fill:none;}.cls-2{clip-path:url(#clip-path);}.cls-3{fill:#42c920;}</style><clipPath id="clip-path"><rect class="cls-1" width="381" height="171"/></clipPath></defs><title>logo_horizontal_verde_negro_sin_fondo</title><g class="cls-2"><path d="M144.19,83a10.06,10.06,0,0,1-3.9-.2,19.3,19.3,0,0,1-3.4-1.1,13.16,13.16,0,0,1-2.9-1.9l1.7-2.2a12.48,12.48,0,0,0,3.8,2.3,13.44,13.44,0,0,0,4.6.8,9.49,9.49,0,0,0,5.5-1.4,4.61,4.61,0,0,0,2-3.9,3.33,3.33,0,0,0-.9-2.5,5.55,5.55,0,0,0-2.2-1.4,34.63,34.63,0,0,0-3.5-.9h-.2l-.6-.1c-2-.4-3.5-.8-4.7-1.1a6.91,6.91,0,0,1-3-2,6.16,6.16,0,0,1-1.2-4,7.83,7.83,0,0,1,1.2-4.4,7.93,7.93,0,0,1,3.4-2.8,14.35,14.35,0,0,1,5.3-.9,13.58,13.58,0,0,1,2.9.3,11.11,11.11,0,0,1,2.9,1,25.43,25.43,0,0,1,2.8,1.6l-1.6,2.1a17.41,17.41,0,0,0-3.5-1.9,10.16,10.16,0,0,0-3.4-.6,9,9,0,0,0-5.3,1.4,4.59,4.59,0,0,0-1.9,4,3.49,3.49,0,0,0,.9,2.5,5.76,5.76,0,0,0,2.3,1.3,31,31,0,0,0,3.8.9h.8c1.7.4,3.2.8,4.4,1.2a6.8,6.8,0,0,1,2.9,2.1,6.05,6.05,0,0,1,1.2,3.9,7.5,7.5,0,0,1-1.2,4.3,7.38,7.38,0,0,1-3.5,2.7A15.09,15.09,0,0,1,144.19,83Z"/><rect x="160.09" y="63.17" width="2.8" height="19.7"/><rect x="160.09" y="55.27" width="2.8" height="2.7"/><path d="M177.19,65.47a5.17,5.17,0,0,0-3.8,1.3,4.84,4.84,0,0,0-1.3,3.6V65.91a6.09,6.09,0,0,1,2.4-2.14,8.72,8.72,0,0,1,4-.9,6.14,6.14,0,0,1,5,2.1,8.85,8.85,0,0,1,1.8,5.9v12h-2.8V71a6,6,0,0,0-1.4-4.1A4.93,4.93,0,0,0,177.19,65.47Z"/><path d="M172.09,65.91v4.46l-.4-3.8C171.82,66.34,172,66.11,172.09,65.91Z"/><path d="M169.29,82.87V63.17h2.8v2.74c-.14.2-.27.43-.4.66l.4,3.8v12.5Z"/><path d="M206.59,63.17v19.1a9.88,9.88,0,0,1-1,4.7,6.27,6.27,0,0,1-2.9,2.9,10.76,10.76,0,0,1-4.6,1,8.76,8.76,0,0,1-4.2-.8,6.17,6.17,0,0,1-2.7-2.3l1.9-1.7a5.48,5.48,0,0,0,2.2,1.8,5.57,5.57,0,0,0,8.5-5.2V80.29a2.14,2.14,0,0,0,.1-.22l-.1-1.37V68.57l.2-1.9c-.06-.13-.13-.27-.2-.39V63.17Z"/><path d="M203.79,66.28c.07.12.14.26.2.39l-.2,1.9Z"/><path d="M203.79,78.7l.1,1.37a2.14,2.14,0,0,1-.1.22Z"/><path d="M203.79,78.7v1.59a4.65,4.65,0,0,1-2.3,2.38,9.49,9.49,0,0,1-4,.8,12.38,12.38,0,0,1-3.7-1.2,6.36,6.36,0,0,1-2.4-2.7,11,11,0,0,1-.8-4.3V71a11,11,0,0,1,.8-4.3,5.59,5.59,0,0,1,2.3-2.7,6.87,6.87,0,0,1,3.6-.9,10.19,10.19,0,0,1,4,.8,6.21,6.21,0,0,1,2.5,2.41v2.29l-.2,1.9a4.75,4.75,0,0,0-.6-2.4,4.69,4.69,0,0,0-1.8-1.9,5,5,0,0,0-2.7-.7,4.76,4.76,0,0,0-3.8,1.5,6.07,6.07,0,0,0-1.4,4.2v4.3a5.81,5.81,0,0,0,1.4,4.1,4.9,4.9,0,0,0,3.8,1.5,5,5,0,0,0,2.7-.7,4.69,4.69,0,0,0,1.8-1.9,5.42,5.42,0,0,0,.6-2.5Z"/><path d="M215.69,79.67a2.06,2.06,0,0,0,1.7.7h1.8v2.5h-2.3a4.29,4.29,0,0,1-3.4-1.4,5.69,5.69,0,0,1-1.2-3.9V55.17h2.8v22.6A2.71,2.71,0,0,0,215.69,79.67Z"/><path d="M225.6,71.77a1.34,1.34,0,0,0,0,.2v2.3h-.7v-2.5Z"/><path d="M223.09,74.37v-2.2a11.17,11.17,0,0,1,1-5A7.49,7.49,0,0,1,227,64a9.36,9.36,0,0,1,4.5-1.1,7.7,7.7,0,0,1,4.2,1.1,6.34,6.34,0,0,1,2.7,3.1,12.25,12.25,0,0,1,.9,4.9v2.3h-13.7V72a1.34,1.34,0,0,1,0-.2h11.09v-.2a6.73,6.73,0,0,0-1.4-4.5,5,5,0,0,0-3.9-1.6,5.64,5.64,0,0,0-4.3,1.7,6.7,6.7,0,0,0-1.49,4.6h-.71v2.5h.7v.2a6.14,6.14,0,0,0,1.6,4.6,6.05,6.05,0,0,0,4.5,1.6,6.6,6.6,0,0,0,2.7-.6,7.76,7.76,0,0,0,2.4-1.6l1.9,1.8a11.9,11.9,0,0,1-3.3,2.2,9.86,9.86,0,0,1-3.7.8,11.13,11.13,0,0,1-4.6-1.1,7.23,7.23,0,0,1-3-3A10,10,0,0,1,223.09,74.37Z"/><path d="M150.79,88v27.6h-4.6v-2.35c.11-.21.21-.43.3-.65l-.3-4.3v-5l.4-4.2a6.58,6.58,0,0,0-.4-.74V88Z"/><path d="M146.19,98.33a6.58,6.58,0,0,1,.4.74l-.4,4.2Z"/><path d="M146.19,113.22v-5l.3,4.3C146.4,112.79,146.3,113,146.19,113.22Z"/><path d="M146.19,108.27v5a4.84,4.84,0,0,1-1.6,1.85,5.49,5.49,0,0,1-3.2.9,8.06,8.06,0,0,1-3.7-1,6.35,6.35,0,0,1-2.3-2.8,11.69,11.69,0,0,1-.8-4.5v-3.8a12.46,12.46,0,0,1,.8-4.5,5.84,5.84,0,0,1,2.3-2.8,6.09,6.09,0,0,1,3.6-1,5.86,5.86,0,0,1,3.1.9,6.28,6.28,0,0,1,1.8,1.86v4.94a3.58,3.58,0,0,0-.4-1.9,3.45,3.45,0,0,0-1.2-1.2,3.58,3.58,0,0,0-1.9-.4,3.31,3.31,0,0,0-2.6,1.1,4.77,4.77,0,0,0-.9,3.1v3.7a4.48,4.48,0,0,0,.9,3,3.31,3.31,0,0,0,2.6,1.1,4.06,4.06,0,0,0,1.9-.4,3.45,3.45,0,0,0,1.2-1.2A3.81,3.81,0,0,0,146.19,108.27Z"/><path d="M172.29,106.37v1.3H159.9c0-.13,0-.26,0-.4v-2.5c0-.14,0-.27,0-.4H168v-.2a5.16,5.16,0,0,0-1.2-3.2,3.14,3.14,0,0,0-2.6-1.1,3.94,3.94,0,0,0-3.2,1.3,4.87,4.87,0,0,0-1.09,3.2h-1.11v3.3h1.11a4.35,4.35,0,0,0,1.19,3,4.7,4.7,0,0,0,3.4,1.2,5.38,5.38,0,0,0,2.2-.4,8.17,8.17,0,0,0,2-1.2l3,2.8a11.05,11.05,0,0,1-3.4,2.2,10.36,10.36,0,0,1-3.8.8,13,13,0,0,1-4.7-1.2,7.23,7.23,0,0,1-3-3,10,10,0,0,1-1.1-4.8v-2.2a11.17,11.17,0,0,1,1-5,7.49,7.49,0,0,1,2.9-3.2,8.49,8.49,0,0,1,4.6-1.1,7.37,7.37,0,0,1,4.4,1.3,8.28,8.28,0,0,1,2.8,3.7A16.44,16.44,0,0,1,172.29,106.37Z"/><path d="M159.89,107.27c0,.14,0,.27,0,.4h-1.11v-3.3h1.11c0,.13,0,.26,0,.4Z"/><path d="M183.49,111.27a3.58,3.58,0,0,0,1.9.4,3.31,3.31,0,0,0,2.6-1.1,4.48,4.48,0,0,0,.9-3v-3.7a4.77,4.77,0,0,0-.9-3.1,3.31,3.31,0,0,0-2.6-1.1,4.06,4.06,0,0,0-1.9.4,3.45,3.45,0,0,0-1.2,1.2,3.81,3.81,0,0,0-.4,1.9V98.36a7.2,7.2,0,0,1,1.8-2,5.38,5.38,0,0,1,3.1-.9,6.09,6.09,0,0,1,3.6,1,5.84,5.84,0,0,1,2.3,2.8,11.69,11.69,0,0,1,.8,4.5v3.7a12.46,12.46,0,0,1-.8,4.5,5.41,5.41,0,0,1-2.3,2.8,7,7,0,0,1-3.7,1,4.53,4.53,0,0,1-3.1-.8,5.16,5.16,0,0,1-1.7-1.91v-4.89a3.81,3.81,0,0,0,.4,1.9A3.45,3.45,0,0,0,183.49,111.27Z"/><path d="M181.89,113.06v10.51h-4.6V95.87h4.6v2.49c-.14.22-.27.46-.4.71l.4,4.1v5l-.3,4.3A4.65,4.65,0,0,0,181.89,113.06Z"/><path d="M181.89,108.17v4.89a4.65,4.65,0,0,1-.3-.59Z"/><path d="M181.89,98.36v4.81l-.4-4.1C181.62,98.82,181.75,98.58,181.89,98.36Z"/><path d="M214.59,106.37v1.3H202.3c0-.13,0-.26,0-.4v-2.5c0-.14,0-.27,0-.4h8.09v-.2a5.16,5.16,0,0,0-1.2-3.2,3.14,3.14,0,0,0-2.6-1.1,3.94,3.94,0,0,0-3.2,1.3,4.87,4.87,0,0,0-1.09,3.2h-1.11v3.3h1.11a4.35,4.35,0,0,0,1.19,3,4.7,4.7,0,0,0,3.4,1.2,5.38,5.38,0,0,0,2.2-.4,8.17,8.17,0,0,0,2-1.2l3,2.8a11.05,11.05,0,0,1-3.4,2.2,10.36,10.36,0,0,1-3.8.8,14.11,14.11,0,0,1-4.8-1.2,7.23,7.23,0,0,1-3-3,10,10,0,0,1-1.1-4.8v-2.2a11.17,11.17,0,0,1,1-5,7.49,7.49,0,0,1,2.9-3.2,8.49,8.49,0,0,1,4.6-1.1,7.37,7.37,0,0,1,4.4,1.3,8.28,8.28,0,0,1,2.8,3.7A16.44,16.44,0,0,1,214.59,106.37Z"/><path d="M202.29,107.27c0,.14,0,.27,0,.4h-1.11v-3.3h1.11c0,.13,0,.26,0,.4Z"/><path d="M236,103.67v12h-4.6v-12a3.34,3.34,0,0,0-1-2.7,3.87,3.87,0,0,0-2.7-1,3.15,3.15,0,0,0-3.5,3.5V98.66a8.17,8.17,0,0,1,1.9-2.09,5,5,0,0,1,3.2-.9,5.94,5.94,0,0,1,4.9,2.1A9.43,9.43,0,0,1,236,103.67Z"/><path d="M224.19,103.47v12.1h-4.6V95.87h4.6v2.79a8.13,8.13,0,0,0-.4.71Z"/><path d="M224.19,98.66v4.81l-.4-4.1A8.13,8.13,0,0,1,224.19,98.66Z"/><path d="M257.09,88v27.6h-4.6V113.4a5.78,5.78,0,0,0,.4-.83l-.3-4.3a5.32,5.32,0,0,1-.1,1.07v-7.17a5.16,5.16,0,0,1,.1,1.1l.4-4.2a6,6,0,0,0-.5-.89V88Z"/><path d="M252.49,98.18a6,6,0,0,1,.5.89l-.4,4.2a5.16,5.16,0,0,0-.1-1.1Z"/><path d="M252.49,113.4v-4.06a5.32,5.32,0,0,0,.1-1.07l.3,4.3A5.78,5.78,0,0,1,252.49,113.4Z"/><path d="M252.49,109.34v4.06a4.8,4.8,0,0,1-1.5,1.67,5.49,5.49,0,0,1-3.2.9,8.06,8.06,0,0,1-3.7-1,6.35,6.35,0,0,1-2.3-2.8,11.69,11.69,0,0,1-.8-4.5v-3.8a12.46,12.46,0,0,1,.8-4.5,5.84,5.84,0,0,1,2.3-2.8,6.09,6.09,0,0,1,3.6-1,5.86,5.86,0,0,1,3.1.9,6.15,6.15,0,0,1,1.7,1.71v4a2.55,2.55,0,0,0-.3-.8,3.45,3.45,0,0,0-1.2-1.2,3.58,3.58,0,0,0-1.9-.4,3.31,3.31,0,0,0-2.6,1.1,4.77,4.77,0,0,0-.9,3.1v3.7a4.48,4.48,0,0,0,.9,3,3.31,3.31,0,0,0,2.6,1.1,4.06,4.06,0,0,0,1.9-.4,3.45,3.45,0,0,0,1.2-1.2A2.64,2.64,0,0,0,252.49,109.34Z"/><path d="M278.69,106.37v1.3H266.3c0-.13,0-.26,0-.4v-2.5c0-.14,0-.27,0-.4h8.09v-.2a5.16,5.16,0,0,0-1.2-3.2,3.14,3.14,0,0,0-2.6-1.1,3.94,3.94,0,0,0-3.2,1.3,4.87,4.87,0,0,0-1.09,3.2h-1.11v3.3h1.11a4.35,4.35,0,0,0,1.19,3,4.7,4.7,0,0,0,3.4,1.2,5.38,5.38,0,0,0,2.2-.4,8.17,8.17,0,0,0,2-1.2l3,2.8a11.05,11.05,0,0,1-3.4,2.2,10.36,10.36,0,0,1-3.8.8,13,13,0,0,1-4.7-1.2,7.23,7.23,0,0,1-3-3,10,10,0,0,1-1.1-4.8v-2.2a11.17,11.17,0,0,1,1-5,7.49,7.49,0,0,1,2.9-3.2,8.49,8.49,0,0,1,4.6-1.1,7.37,7.37,0,0,1,4.4,1.3,8.28,8.28,0,0,1,2.8,3.7A16.44,16.44,0,0,1,278.69,106.37Z"/><path d="M266.29,107.27c0,.14,0,.27,0,.4h-1.11v-3.3h1.11c0,.13,0,.26,0,.4Z"/><path d="M300,103.67v12h-4.6v-12a3.34,3.34,0,0,0-1-2.7,3.87,3.87,0,0,0-2.7-1,3.57,3.57,0,0,0-2.6.9,3,3,0,0,0-.8,1.6v-4a8,8,0,0,1,1.8-1.94,5,5,0,0,1,3.2-.9,5.94,5.94,0,0,1,4.9,2.1A9.43,9.43,0,0,1,300,103.67Z"/><path d="M288.29,102.47v13.1h-4.6V95.87h4.6v2.64a8,8,0,0,0-.5.86l.4,4.1A4.52,4.52,0,0,1,288.29,102.47Z"/><path d="M288.29,98.51v4a4.52,4.52,0,0,0-.1,1l-.4-4.1A8,8,0,0,1,288.29,98.51Z"/><path d="M321.09,98.87l-3.1,2.9a5.94,5.94,0,0,0-1.8-1.3,5.38,5.38,0,0,0-2.2-.4,4.86,4.86,0,0,0-3.3,1.1,4.46,4.46,0,0,0-1.2,3.3v2.7a4.31,4.31,0,0,0,1.2,3.3,4.46,4.46,0,0,0,3.3,1.2,5.45,5.45,0,0,0,2.2-.5,5.94,5.94,0,0,0,1.8-1.3l3.1,3.1a6.27,6.27,0,0,1-1.9,1.7,11.18,11.18,0,0,1-2.5,1.1,13.61,13.61,0,0,1-3,.4,15.33,15.33,0,0,1-4.7-1.3,7.23,7.23,0,0,1-3-3,10,10,0,0,1-1-4.8v-2.7a9.88,9.88,0,0,1,1-4.7,7.23,7.23,0,0,1,3-3,9.88,9.88,0,0,1,4.7-1,10.24,10.24,0,0,1,5.5,1.5A7.72,7.72,0,0,1,321.09,98.87Z"/><path d="M341.09,106.37v1.3H328.7c0-.13,0-.26,0-.4v-2.5c0-.14,0-.27,0-.4h8.09v-.2a5.16,5.16,0,0,0-1.2-3.2,3.14,3.14,0,0,0-2.6-1.1,3.94,3.94,0,0,0-3.2,1.3,4.87,4.87,0,0,0-1.09,3.2h-1.11v3.3h1.11a4.35,4.35,0,0,0,1.19,3,4.7,4.7,0,0,0,3.4,1.2,5.38,5.38,0,0,0,2.2-.4,8.17,8.17,0,0,0,2-1.2l3,2.8a11.05,11.05,0,0,1-3.4,2.2,10.36,10.36,0,0,1-3.8.8,13,13,0,0,1-4.7-1.2,7.23,7.23,0,0,1-3-3,10,10,0,0,1-1.1-4.8v-2.2a11.17,11.17,0,0,1,1-5,7.49,7.49,0,0,1,2.9-3.2,8.49,8.49,0,0,1,4.6-1.1,7.37,7.37,0,0,1,4.4,1.3,8.28,8.28,0,0,1,2.8,3.7A16.44,16.44,0,0,1,341.09,106.37Z"/><path d="M328.69,107.27c0,.14,0,.27,0,.4h-1.11v-3.3h1.11c0,.13,0,.26,0,.4Z"/><polygon class="cls-3" points="79.89 40.89 79.89 63.79 68.69 67.69 68.69 59.29 54.59 64.59 54.59 77.09 79.19 68.09 79.19 128.99 43.29 114.29 43.29 100.09 54.19 95.89 54.19 105.59 68.69 111.09 68.69 85.29 43.29 94.89 43.29 55.49 79.89 40.89"/><path class="cls-3" d="M118.29,55.92v58.43l-35.8,14.14V40.89Zm-10.8,49.47V61.89l-13.9-5.4v54.9Z"/></g></svg>