<?xml version="1.0" encoding="utf-8"?>
<!-- Generator: Adobe Illustrator 24.1.1, SVG Export Plug-In . SVG Version: 6.00 Build 0)  -->
<svg version="1.1" id="Layer_1" xmlns="http://www.w3.org/2000/svg" xmlns:xlink="http://www.w3.org/1999/xlink" x="0px" y="0px"
	 viewBox="0 0 446.11 107.06" style="enable-background:new 0 0 446.11 107.06;" xml:space="preserve">
<style type="text/css">
	.st0{fill:#FFFFFF;}
	.st1{fill:#F7541B;}
</style>
<g>
	<path class="st0" d="M138.14,45.84c-1.79-0.38-3.46-0.94-5.01-1.7c-1.55-0.75-3-1.7-4.35-2.83l2.48-3.23
		c1.73,1.51,3.64,2.64,5.73,3.4c2.09,0.76,4.37,1.13,6.82,1.13c3.56,0,6.31-0.7,8.26-2.09c1.95-1.4,2.93-3.36,2.93-5.89V34.6
		c0-1.57-0.42-2.82-1.27-3.76c-0.85-0.94-1.94-1.65-3.28-2.12c-1.34-0.47-3.07-0.9-5.18-1.3c-0.06-0.02-0.12-0.03-0.19-0.04
		c-0.07-0.01-0.14-0.02-0.22-0.04l-0.83-0.17c-2.91-0.55-5.24-1.12-6.99-1.71c-1.75-0.59-3.24-1.6-4.46-3.03
		c-1.23-1.42-1.84-3.4-1.84-5.93v-0.03c0-2.55,0.58-4.72,1.73-6.52c1.15-1.8,2.83-3.17,5.04-4.12c2.21-0.94,4.86-1.41,7.96-1.41
		c1.46,0,2.91,0.16,4.35,0.48c1.44,0.32,2.85,0.8,4.25,1.43c1.4,0.63,2.78,1.43,4.15,2.39l-2.43,3.2c-1.79-1.25-3.54-2.18-5.25-2.79
		c-1.71-0.61-3.41-0.92-5.08-0.92c-3.39,0-6.01,0.71-7.87,2.12s-2.8,3.41-2.8,5.97v0.03c0,1.55,0.47,2.77,1.4,3.67
		c0.93,0.9,2.09,1.56,3.47,2c1.38,0.43,3.27,0.89,5.66,1.36c0.08,0.02,0.16,0.04,0.24,0.06c0.09,0.02,0.18,0.04,0.27,0.06
		c0.12,0.02,0.22,0.04,0.33,0.07c0.1,0.03,0.22,0.05,0.33,0.07c2.6,0.53,4.77,1.13,6.5,1.81c1.73,0.68,3.17,1.74,4.32,3.18
		c1.15,1.44,1.73,3.39,1.73,5.84v0.06c0,2.51-0.6,4.66-1.8,6.44c-1.2,1.78-2.93,3.14-5.21,4.08c-2.27,0.93-5.02,1.4-8.23,1.4
		C141.82,46.4,139.93,46.21,138.14,45.84z"/>
	<path class="st0" d="M167.62,4.82h4.11V8.9h-4.11V4.82z M167.62,16.6h4.11v29.38h-4.11V16.6z"/>
	<path class="st0" d="M181.42,16.6h4.11v29.38h-4.11V16.6z M201.11,28.17c0-2.6-0.69-4.62-2.07-6.06c-1.38-1.43-3.32-2.15-5.83-2.15
		c-2.44,0-4.32,0.64-5.67,1.91c-1.34,1.27-2.01,3.08-2.01,5.42l-0.6-5.66c1.05-1.93,2.43-3.32,4.17-4.17
		c1.73-0.86,3.74-1.29,6.02-1.29c3.21,0,5.7,1.04,7.46,3.13c1.76,2.09,2.64,5.03,2.64,8.85v17.83h-4.11V28.17z"/>
	<path class="st0" d="M217.91,45c-1.54-0.93-2.71-2.29-3.51-4.06c-0.8-1.77-1.2-3.91-1.2-6.4v-6.4c0-2.53,0.39-4.69,1.17-6.48
		c0.78-1.79,1.92-3.16,3.41-4.09c1.49-0.93,3.28-1.4,5.38-1.4c2.26,0,4.25,0.42,5.95,1.26c1.7,0.84,3.07,2.21,4.09,4.12l-0.6,5.66
		c0-1.28-0.3-2.5-0.9-3.65c-0.6-1.15-1.47-2.08-2.61-2.8c-1.14-0.72-2.48-1.08-4.02-1.08c-2.47,0-4.39,0.74-5.73,2.22
		c-1.35,1.48-2.03,3.57-2.03,6.27v6.37c0,2.64,0.68,4.69,2.03,6.16c1.35,1.46,3.26,2.19,5.73,2.19c1.52,0,2.85-0.37,3.99-1.1
		c1.14-0.74,2.02-1.69,2.62-2.87c0.61-1.18,0.91-2.41,0.91-3.69l0.4,6.14c-0.74,1.79-1.92,3.08-3.54,3.86
		c-1.62,0.78-3.62,1.17-6.02,1.17C221.3,46.4,219.46,45.93,217.91,45z M218,56.69c-1.75-0.82-3.11-1.98-4.08-3.47l2.8-2.49
		c0.89,1.15,1.97,2.04,3.22,2.68c1.26,0.63,2.58,0.95,3.97,0.95c2.76,0,4.9-0.76,6.42-2.28c1.52-1.52,2.28-3.66,2.28-6.41V16.6h4.11
		v28.5c0,2.7-0.5,5.01-1.5,6.93c-1,1.92-2.45,3.39-4.35,4.39c-1.9,1-4.19,1.5-6.87,1.5C221.75,57.92,219.75,57.51,218,56.69z"/>
	<path class="st0" d="M249.67,38.25c0,1.25,0.31,2.21,0.93,2.9c0.62,0.69,1.48,1.03,2.58,1.03h2.74v3.79h-3.42
		c-2.21,0-3.91-0.68-5.12-2.04c-1.21-1.36-1.81-3.27-1.81-5.75V4.82h4.11V38.25z"/>
	<path class="st0" d="M267.59,44.86c-1.94-1.03-3.42-2.53-4.44-4.5c-1.02-1.97-1.52-4.34-1.52-7.12v-3.31
		c0-2.91,0.49-5.39,1.47-7.44c0.98-2.06,2.4-3.62,4.26-4.7c1.86-1.08,4.11-1.61,6.73-1.61c2.47,0,4.58,0.53,6.33,1.59
		c1.75,1.06,3.09,2.6,4.01,4.63s1.38,4.47,1.38,7.32v3.37h-21.4v-3.68h17.58v-0.28c0-2.91-0.69-5.16-2.07-6.75
		c-1.38-1.59-3.32-2.39-5.83-2.39c-2.76,0-4.89,0.84-6.39,2.52c-1.5,1.68-2.25,4.06-2.25,7.13v3.74c0,2.94,0.8,5.22,2.4,6.83
		c1.6,1.61,3.85,2.42,6.76,2.42c1.37,0,2.72-0.28,4.06-0.85c1.34-0.57,2.54-1.37,3.58-2.41l2.8,2.66c-1.44,1.4-3.08,2.48-4.91,3.24
		c-1.83,0.77-3.67,1.15-5.53,1.15C271.86,46.4,269.52,45.89,267.59,44.86z"/>
	<path class="st0" d="M134.28,93.73c-1.51-0.97-2.66-2.38-3.45-4.22c-0.79-1.84-1.18-4.06-1.18-6.67v-5.6c0-2.6,0.39-4.84,1.17-6.69
		c0.78-1.86,1.92-3.27,3.41-4.25c1.49-0.97,3.29-1.46,5.38-1.46c1.67,0,3.2,0.46,4.58,1.39c1.38,0.92,2.49,2.23,3.32,3.91l-0.6,6.25
		c0-1.13-0.2-2.09-0.6-2.89c-0.4-0.79-0.98-1.4-1.74-1.81c-0.76-0.41-1.68-0.62-2.77-0.62c-1.69,0-3.01,0.55-3.94,1.64
		c-0.93,1.09-1.4,2.62-1.4,4.59v5.55c0,1.94,0.47,3.45,1.4,4.51c0.93,1.07,2.25,1.6,3.94,1.6c1.08,0,2.01-0.21,2.77-0.64
		c0.76-0.43,1.34-1.03,1.74-1.83c0.4-0.79,0.6-1.75,0.6-2.86l0.4,6.45c-0.59,1.53-1.54,2.76-2.84,3.69c-1.3,0.93-2.88,1.4-4.72,1.4
		C137.61,95.19,135.79,94.7,134.28,93.73z M146.9,53.55h6.82v41.15h-6.82V53.55z"/>
	<path class="st0" d="M167.24,93.61c-1.98-1.02-3.49-2.51-4.54-4.49c-1.05-1.97-1.57-4.35-1.57-7.15v-3.31c0-2.91,0.5-5.39,1.5-7.44
		c1-2.06,2.45-3.62,4.36-4.7c1.91-1.08,4.21-1.61,6.89-1.61c2.53,0,4.69,0.63,6.49,1.88c1.8,1.26,3.17,3.07,4.11,5.45
		c0.94,2.38,1.41,5.25,1.41,8.61v1.92h-20.11v-4.95h13.78l-0.03-0.31c-0.19-2.06-0.77-3.65-1.74-4.78c-0.97-1.13-2.27-1.7-3.91-1.7
		c-2.06,0-3.64,0.64-4.76,1.91c-1.12,1.27-1.68,3.08-1.68,5.42v3.74c0,2.23,0.61,3.94,1.83,5.14c1.22,1.2,2.93,1.8,5.14,1.8
		c1.12,0,2.23-0.21,3.32-0.64c1.09-0.43,2.08-1.02,2.95-1.77l4.45,4.13c-1.5,1.4-3.19,2.48-5.06,3.24
		c-1.88,0.77-3.76,1.15-5.66,1.15C171.61,95.13,169.22,94.62,167.24,93.61z"/>
	<path class="st0" d="M193.32,65.33h6.82v41.32h-6.82V65.33z M202.65,93.82c-1.31-0.88-2.28-2.12-2.91-3.72l0.4-6.42
		c0,1.11,0.2,2.06,0.6,2.84s0.98,1.38,1.74,1.8c0.76,0.42,1.68,0.62,2.77,0.62c1.69,0,3.01-0.53,3.94-1.59
		c0.93-1.06,1.4-2.56,1.4-4.5v-5.52c0-1.98-0.46-3.51-1.4-4.6c-0.93-1.08-2.24-1.63-3.94-1.63c-1.09,0-2.01,0.2-2.77,0.61
		c-0.76,0.41-1.34,1.01-1.74,1.8s-0.6,1.75-0.6,2.86l-0.6-6.09c0.84-1.72,1.94-3.04,3.32-3.98c1.38-0.93,2.91-1.4,4.58-1.4
		c2.09,0,3.89,0.48,5.38,1.44c1.49,0.96,2.63,2.37,3.41,4.23c0.78,1.86,1.17,4.1,1.17,6.72v5.55c0,2.59-0.39,4.8-1.18,6.64
		c-0.79,1.84-1.94,3.24-3.47,4.2c-1.52,0.96-3.34,1.44-5.45,1.44C205.51,95.13,203.96,94.7,202.65,93.82z"/>
	<path class="st0" d="M230.35,93.61c-1.98-1.02-3.49-2.51-4.54-4.49c-1.05-1.97-1.57-4.35-1.57-7.15v-3.31c0-2.91,0.5-5.39,1.5-7.44
		c1-2.06,2.45-3.62,4.36-4.7c1.91-1.08,4.21-1.61,6.89-1.61c2.53,0,4.69,0.63,6.49,1.88c1.8,1.26,3.17,3.07,4.11,5.45
		c0.94,2.38,1.41,5.25,1.41,8.61v1.92H228.9v-4.95h13.78l-0.03-0.31c-0.19-2.06-0.77-3.65-1.74-4.78c-0.97-1.13-2.27-1.7-3.91-1.7
		c-2.06,0-3.64,0.64-4.76,1.91c-1.12,1.27-1.68,3.08-1.68,5.42v3.74c0,2.23,0.61,3.94,1.83,5.14c1.22,1.2,2.93,1.8,5.14,1.8
		c1.12,0,2.23-0.21,3.32-0.64c1.09-0.43,2.08-1.02,2.95-1.77l4.45,4.13c-1.5,1.4-3.19,2.48-5.06,3.24
		c-1.88,0.77-3.76,1.15-5.66,1.15C234.72,95.13,232.33,94.62,230.35,93.61z"/>
	<path class="st0" d="M256.43,65.33h6.82v29.38h-6.82V65.33z M273.97,76.91c0-1.76-0.48-3.11-1.43-4.08
		c-0.95-0.96-2.3-1.44-4.05-1.44c-1.67,0-2.97,0.45-3.88,1.34c-0.91,0.9-1.37,2.17-1.37,3.81l-0.6-6.09
		c0.89-1.81,2.02-3.19,3.38-4.13c1.36-0.94,2.96-1.42,4.81-1.42c3.16,0,5.6,1.04,7.34,3.13c1.74,2.09,2.61,5.03,2.61,8.85v17.83
		h-6.82V76.91z"/>
	<path class="st0" d="M292.85,93.73c-1.51-0.97-2.66-2.38-3.45-4.22c-0.79-1.84-1.18-4.06-1.18-6.67v-5.6c0-2.6,0.39-4.84,1.17-6.69
		c0.78-1.86,1.92-3.27,3.41-4.25c1.49-0.97,3.29-1.46,5.38-1.46c1.67,0,3.2,0.46,4.58,1.39c1.38,0.92,2.49,2.23,3.32,3.91l-0.6,6.25
		c0-1.13-0.2-2.09-0.6-2.89c-0.4-0.79-0.98-1.4-1.74-1.81c-0.76-0.41-1.68-0.62-2.77-0.62c-1.69,0-3.01,0.55-3.94,1.64
		c-0.93,1.09-1.4,2.62-1.4,4.59v5.55c0,1.94,0.47,3.45,1.4,4.51c0.93,1.07,2.25,1.6,3.94,1.6c1.08,0,2.01-0.21,2.77-0.64
		c0.76-0.43,1.34-1.03,1.74-1.83c0.4-0.79,0.6-1.75,0.6-2.86l0.4,6.45c-0.59,1.53-1.54,2.76-2.84,3.69c-1.3,0.93-2.88,1.4-4.72,1.4
		C296.18,95.19,294.36,94.7,292.85,93.73z M305.47,53.55h6.82v41.15h-6.82V53.55z"/>
	<path class="st0" d="M325.82,93.61c-1.98-1.02-3.49-2.51-4.54-4.49c-1.05-1.97-1.57-4.35-1.57-7.15v-3.31c0-2.91,0.5-5.39,1.5-7.44
		c1-2.06,2.45-3.62,4.36-4.7c1.91-1.08,4.21-1.61,6.89-1.61c2.53,0,4.69,0.63,6.49,1.88c1.8,1.26,3.17,3.07,4.11,5.45
		c0.94,2.38,1.41,5.25,1.41,8.61v1.92h-20.11v-4.95h13.78l-0.03-0.31c-0.19-2.06-0.77-3.65-1.74-4.78c-0.97-1.13-2.27-1.7-3.91-1.7
		c-2.06,0-3.64,0.64-4.76,1.91c-1.12,1.27-1.68,3.08-1.68,5.42v3.74c0,2.23,0.61,3.94,1.83,5.14c1.22,1.2,2.93,1.8,5.14,1.8
		c1.12,0,2.23-0.21,3.32-0.64c1.09-0.43,2.08-1.02,2.95-1.77l4.45,4.13c-1.5,1.4-3.19,2.48-5.06,3.24
		c-1.88,0.77-3.76,1.15-5.66,1.15C330.18,95.13,327.79,94.62,325.82,93.61z"/>
	<path class="st0" d="M351.89,65.33h6.82v29.38h-6.82V65.33z M369.44,76.91c0-1.76-0.48-3.11-1.43-4.08
		c-0.95-0.96-2.3-1.44-4.05-1.44c-1.67,0-2.97,0.45-3.88,1.34c-0.91,0.9-1.37,2.17-1.37,3.81l-0.6-6.09
		c0.89-1.81,2.02-3.19,3.38-4.13c1.36-0.94,2.96-1.42,4.81-1.42c3.16,0,5.6,1.04,7.34,3.13c1.74,2.09,2.61,5.03,2.61,8.85v17.83
		h-6.82V76.91z"/>
	<path class="st0" d="M389.7,93.59c-1.96-1.03-3.45-2.53-4.48-4.5c-1.03-1.97-1.54-4.35-1.54-7.15v-3.99c0-2.75,0.51-5.11,1.54-7.06
		c1.03-1.95,2.52-3.44,4.48-4.46s4.32-1.53,7.08-1.53c1.58,0,3.07,0.19,4.46,0.55s2.65,0.9,3.76,1.6c1.11,0.7,2.04,1.55,2.78,2.55
		l-4.62,4.3c-0.78-0.81-1.69-1.43-2.74-1.87c-1.05-0.43-2.14-0.65-3.28-0.65c-2.11,0-3.75,0.57-4.91,1.71
		c-1.16,1.14-1.74,2.76-1.74,4.85v3.99c0,2.15,0.57,3.81,1.73,4.97c1.15,1.16,2.79,1.74,4.92,1.74c1.16,0,2.26-0.23,3.31-0.71
		c1.05-0.47,1.95-1.14,2.71-2.01l4.62,4.59c-0.76,0.98-1.7,1.82-2.81,2.51c-1.11,0.69-2.37,1.21-3.76,1.57s-2.88,0.54-4.44,0.54
		C394.01,95.13,391.65,94.62,389.7,93.59z"/>
	<path class="st0" d="M418.88,93.61c-1.98-1.02-3.49-2.51-4.54-4.49c-1.05-1.97-1.57-4.35-1.57-7.15v-3.31c0-2.91,0.5-5.39,1.5-7.44
		c1-2.06,2.45-3.62,4.36-4.7c1.91-1.08,4.21-1.61,6.89-1.61c2.53,0,4.69,0.63,6.49,1.88c1.8,1.26,3.17,3.07,4.11,5.45
		c0.94,2.38,1.41,5.25,1.41,8.61v1.92h-20.11v-4.95h13.78l-0.03-0.31c-0.19-2.06-0.77-3.65-1.74-4.78c-0.97-1.13-2.27-1.7-3.91-1.7
		c-2.06,0-3.64,0.64-4.76,1.91c-1.12,1.27-1.68,3.08-1.68,5.42v3.74c0,2.23,0.61,3.94,1.83,5.14c1.22,1.2,2.93,1.8,5.14,1.8
		c1.12,0,2.23-0.21,3.32-0.64c1.09-0.43,2.08-1.02,2.95-1.77l4.45,4.13c-1.5,1.4-3.19,2.48-5.06,3.24
		c-1.88,0.77-3.76,1.15-5.66,1.15C423.25,95.13,420.86,94.62,418.88,93.61z"/>
</g>
<g>
	<polygon class="st1" points="44.27,28.12 44.27,0.96 0.73,18.38 0.73,65.24 30.94,53.83 30.94,84.52 13.74,77.93 13.74,66.36 
		0.73,71.34 0.73,88.21 43.47,105.73 43.47,33.26 14.23,43.99 14.23,29.08 30.94,22.82 30.94,32.78 	"/>
</g>
<g>
	<g>
		<path class="st1" d="M49.66,0.02v105.41L92.72,88.4V18.08L49.66,0.02z M79.46,77.93L62.91,85V19.76l16.55,6.43V77.93z"/>
	</g>
</g>
</svg>
