<svg id="Capa_1" data-name="Capa 1" xmlns="http://www.w3.org/2000/svg" xmlns:xlink="http://www.w3.org/1999/xlink" viewBox="0 0 381 171"><defs><style>.cls-1{fill:none;}.cls-2{clip-path:url(#clip-path);}.cls-3{fill:#fff;}.cls-4{fill:#42c920;}</style><clipPath id="clip-path"><rect class="cls-1" width="381" height="171"/></clipPath></defs><title>logo_horizontal_verde_blanco_sin_fondo</title><g class="cls-2"><path class="cls-3" d="M140.29,82.77a19.3,19.3,0,0,1-3.4-1.1,13.16,13.16,0,0,1-2.9-1.9l1.7-2.2a12.48,12.48,0,0,0,3.8,2.3,13.44,13.44,0,0,0,4.6.8,9.49,9.49,0,0,0,5.5-1.4,4.61,4.61,0,0,0,2-3.9,3.33,3.33,0,0,0-.9-2.5,5.55,5.55,0,0,0-2.2-1.4,34.63,34.63,0,0,0-3.5-.9h-.2l-.6-.1c-2-.4-3.5-.8-4.7-1.1a6.91,6.91,0,0,1-3-2,6.16,6.16,0,0,1-1.2-4,7.83,7.83,0,0,1,1.2-4.4,7.93,7.93,0,0,1,3.4-2.8,14.35,14.35,0,0,1,5.3-.9,13.58,13.58,0,0,1,2.9.3,11.11,11.11,0,0,1,2.9,1,25.43,25.43,0,0,1,2.8,1.6l-1.6,2.1a17.41,17.41,0,0,0-3.5-1.9,10.16,10.16,0,0,0-3.4-.6,9,9,0,0,0-5.3,1.4,4.59,4.59,0,0,0-1.9,4,3.49,3.49,0,0,0,.9,2.5,5.76,5.76,0,0,0,2.3,1.3,31,31,0,0,0,3.8.9h.8c1.7.4,3.2.8,4.4,1.2a6.8,6.8,0,0,1,2.9,2.1,6.05,6.05,0,0,1,1.2,3.9,7.5,7.5,0,0,1-1.2,4.3,7.38,7.38,0,0,1-3.5,2.7,15.09,15.09,0,0,1-5.5.9,10.06,10.06,0,0,1-3.9-.2"/><path class="cls-3" d="M160.09,55.27h2.8V58h-2.8Zm0,7.9h2.8v19.7h-2.8Z"/><path class="cls-3" d="M169.29,63.17h2.8v19.7h-2.8Zm13.2,7.8a6,6,0,0,0-1.4-4.1,4.93,4.93,0,0,0-3.9-1.4,5.17,5.17,0,0,0-3.8,1.3,4.84,4.84,0,0,0-1.3,3.6l-.4-3.8a6.31,6.31,0,0,1,2.8-2.8,8.72,8.72,0,0,1,4-.9,6.14,6.14,0,0,1,5,2.1,8.85,8.85,0,0,1,1.8,5.9v12h-2.8Z"/><path class="cls-3" d="M193.79,82.27a6.36,6.36,0,0,1-2.4-2.7,11,11,0,0,1-.8-4.3V71a11,11,0,0,1,.8-4.3,5.59,5.59,0,0,1,2.3-2.7,6.87,6.87,0,0,1,3.6-.9,10.19,10.19,0,0,1,4,.8,6.12,6.12,0,0,1,2.7,2.8l-.4,3.8a4.75,4.75,0,0,0-.6-2.4,4.69,4.69,0,0,0-1.8-1.9,5,5,0,0,0-2.7-.7,4.76,4.76,0,0,0-3.8,1.5,6.07,6.07,0,0,0-1.4,4.2v4.3a5.81,5.81,0,0,0,1.4,4.1,4.9,4.9,0,0,0,3.8,1.5,5,5,0,0,0,2.7-.7,4.69,4.69,0,0,0,1.8-1.9,5.42,5.42,0,0,0,.6-2.5l.3,4.1a4.73,4.73,0,0,1-2.4,2.6,9.49,9.49,0,0,1-4,.8,12.38,12.38,0,0,1-3.7-1.2m.1,7.8a6.17,6.17,0,0,1-2.7-2.3l1.9-1.7a5.48,5.48,0,0,0,2.2,1.8,5.57,5.57,0,0,0,8.5-5.2V63.17h2.8v19.1a9.88,9.88,0,0,1-1,4.7,6.27,6.27,0,0,1-2.9,2.9,10.76,10.76,0,0,1-4.6,1,8.76,8.76,0,0,1-4.2-.8"/><path class="cls-3" d="M215.09,77.77a2.71,2.71,0,0,0,.6,1.9,2.06,2.06,0,0,0,1.7.7h1.8v2.5h-2.3a4.29,4.29,0,0,1-3.4-1.4,5.69,5.69,0,0,1-1.2-3.9V55.17h2.8Z"/><path class="cls-3" d="M227.09,82.17a7.23,7.23,0,0,1-3-3,10,10,0,0,1-1-4.8v-2.2a11.17,11.17,0,0,1,1-5A7.49,7.49,0,0,1,227,64a9.36,9.36,0,0,1,4.5-1.1,7.7,7.7,0,0,1,4.2,1.1,6.34,6.34,0,0,1,2.7,3.1,12.25,12.25,0,0,1,.9,4.9v2.3h-14.4v-2.5h11.8v-.2a6.73,6.73,0,0,0-1.4-4.5,5,5,0,0,0-3.9-1.6,5.64,5.64,0,0,0-4.3,1.7,6.9,6.9,0,0,0-1.5,4.8v2.5a6.14,6.14,0,0,0,1.6,4.6,6.05,6.05,0,0,0,4.5,1.6,6.6,6.6,0,0,0,2.7-.6,7.76,7.76,0,0,0,2.4-1.6l1.9,1.8a11.9,11.9,0,0,1-3.3,2.2,9.86,9.86,0,0,1-3.7.8,11.13,11.13,0,0,1-4.6-1.1"/><path class="cls-3" d="M137.69,115a6.35,6.35,0,0,1-2.3-2.8,11.69,11.69,0,0,1-.8-4.5v-3.8a12.46,12.46,0,0,1,.8-4.5,5.84,5.84,0,0,1,2.3-2.8,6.09,6.09,0,0,1,3.6-1,5.86,5.86,0,0,1,3.1.9,6.27,6.27,0,0,1,2.2,2.6l-.4,4.2a3.58,3.58,0,0,0-.4-1.9,3.45,3.45,0,0,0-1.2-1.2,3.58,3.58,0,0,0-1.9-.4,3.31,3.31,0,0,0-2.6,1.1,4.77,4.77,0,0,0-.9,3.1v3.7a4.48,4.48,0,0,0,.9,3,3.31,3.31,0,0,0,2.6,1.1,4.06,4.06,0,0,0,1.9-.4,3.45,3.45,0,0,0,1.2-1.2,3.81,3.81,0,0,0,.4-1.9l.3,4.3a5.25,5.25,0,0,1-1.9,2.5,5.49,5.49,0,0,1-3.2.9,8.06,8.06,0,0,1-3.7-1m8.5-27h4.6v27.6h-4.6Z"/><path class="cls-3" d="M159.79,114.87a7.23,7.23,0,0,1-3-3,10,10,0,0,1-1.1-4.8v-2.2a11.17,11.17,0,0,1,1-5,7.49,7.49,0,0,1,2.9-3.2,8.49,8.49,0,0,1,4.6-1.1,7.37,7.37,0,0,1,4.4,1.3,8.28,8.28,0,0,1,2.8,3.7,16.44,16.44,0,0,1,.9,5.8v1.3h-13.5v-3.3H168v-.2a5.16,5.16,0,0,0-1.2-3.2,3.14,3.14,0,0,0-2.6-1.1,3.94,3.94,0,0,0-3.2,1.3,5.18,5.18,0,0,0-1.1,3.6v2.5a4.55,4.55,0,0,0,1.2,3.4,4.7,4.7,0,0,0,3.4,1.2,5.38,5.38,0,0,0,2.2-.4,8.17,8.17,0,0,0,2-1.2l3,2.8a11.05,11.05,0,0,1-3.4,2.2,10.36,10.36,0,0,1-3.8.8,13,13,0,0,1-4.7-1.2"/><path class="cls-3" d="M177.29,95.87h4.6v27.7h-4.6Zm6.3,19.1a5.58,5.58,0,0,1-2-2.5l.3-4.3a3.81,3.81,0,0,0,.4,1.9,3.45,3.45,0,0,0,1.2,1.2,3.58,3.58,0,0,0,1.9.4,3.31,3.31,0,0,0,2.6-1.1,4.48,4.48,0,0,0,.9-3v-3.7a4.77,4.77,0,0,0-.9-3.1,3.31,3.31,0,0,0-2.6-1.1,4.06,4.06,0,0,0-1.9.4,3.45,3.45,0,0,0-1.2,1.2,3.81,3.81,0,0,0-.4,1.9l-.4-4.1a7.46,7.46,0,0,1,2.2-2.7,5.38,5.38,0,0,1,3.1-.9,6.09,6.09,0,0,1,3.6,1,5.84,5.84,0,0,1,2.3,2.8,11.69,11.69,0,0,1,.8,4.5v3.7a12.46,12.46,0,0,1-.8,4.5,5.41,5.41,0,0,1-2.3,2.8,7,7,0,0,1-3.7,1,4.53,4.53,0,0,1-3.1-.8"/><path class="cls-3" d="M202.09,114.87a7.23,7.23,0,0,1-3-3,10,10,0,0,1-1.1-4.8v-2.2a11.17,11.17,0,0,1,1-5,7.49,7.49,0,0,1,2.9-3.2,8.49,8.49,0,0,1,4.6-1.1,7.37,7.37,0,0,1,4.4,1.3,8.28,8.28,0,0,1,2.8,3.7,16.44,16.44,0,0,1,.9,5.8v1.3h-13.4v-3.3h9.2v-.2a5.16,5.16,0,0,0-1.2-3.2,3.14,3.14,0,0,0-2.6-1.1,3.94,3.94,0,0,0-3.2,1.3,5.18,5.18,0,0,0-1.1,3.6v2.5a4.55,4.55,0,0,0,1.2,3.4,4.7,4.7,0,0,0,3.4,1.2,5.38,5.38,0,0,0,2.2-.4,8.17,8.17,0,0,0,2-1.2l3,2.8a11.05,11.05,0,0,1-3.4,2.2,10.36,10.36,0,0,1-3.8.8,14.11,14.11,0,0,1-4.8-1.2"/><path class="cls-3" d="M219.59,95.87h4.6v19.7h-4.6Zm11.8,7.8a3.34,3.34,0,0,0-1-2.7,3.87,3.87,0,0,0-2.7-1,3.15,3.15,0,0,0-3.5,3.5l-.4-4.1a8.06,8.06,0,0,1,2.3-2.8,5,5,0,0,1,3.2-.9,5.94,5.94,0,0,1,4.9,2.1,9.43,9.43,0,0,1,1.8,5.9v12h-4.6v-12Z"/><path class="cls-3" d="M244.09,115a6.35,6.35,0,0,1-2.3-2.8,11.69,11.69,0,0,1-.8-4.5v-3.8a12.46,12.46,0,0,1,.8-4.5,5.84,5.84,0,0,1,2.3-2.8,6.09,6.09,0,0,1,3.6-1,5.86,5.86,0,0,1,3.1.9,6.27,6.27,0,0,1,2.2,2.6l-.4,4.2a3.58,3.58,0,0,0-.4-1.9,3.45,3.45,0,0,0-1.2-1.2,3.58,3.58,0,0,0-1.9-.4,3.31,3.31,0,0,0-2.6,1.1,4.77,4.77,0,0,0-.9,3.1v3.7a4.48,4.48,0,0,0,.9,3,3.31,3.31,0,0,0,2.6,1.1,4.06,4.06,0,0,0,1.9-.4,3.45,3.45,0,0,0,1.2-1.2,3.81,3.81,0,0,0,.4-1.9l.3,4.3a5.25,5.25,0,0,1-1.9,2.5,5.49,5.49,0,0,1-3.2.9,8.06,8.06,0,0,1-3.7-1m8.4-27h4.6v27.6h-4.6Z"/><path class="cls-3" d="M266.19,114.87a7.23,7.23,0,0,1-3-3,10,10,0,0,1-1.1-4.8v-2.2a11.17,11.17,0,0,1,1-5,7.49,7.49,0,0,1,2.9-3.2,8.49,8.49,0,0,1,4.6-1.1,7.37,7.37,0,0,1,4.4,1.3,8.28,8.28,0,0,1,2.8,3.7,16.44,16.44,0,0,1,.9,5.8v1.3h-13.5v-3.3h9.2v-.2a5.16,5.16,0,0,0-1.2-3.2,3.14,3.14,0,0,0-2.6-1.1,3.94,3.94,0,0,0-3.2,1.3,5.18,5.18,0,0,0-1.1,3.6v2.5a4.55,4.55,0,0,0,1.2,3.4,4.7,4.7,0,0,0,3.4,1.2,5.38,5.38,0,0,0,2.2-.4,8.17,8.17,0,0,0,2-1.2l3,2.8a11.05,11.05,0,0,1-3.4,2.2,10.36,10.36,0,0,1-3.8.8,13,13,0,0,1-4.7-1.2"/><path class="cls-3" d="M283.69,95.87h4.6v19.7h-4.6Zm11.7,7.8a3.34,3.34,0,0,0-1-2.7,3.87,3.87,0,0,0-2.7-1,3.15,3.15,0,0,0-3.5,3.5l-.4-4.1a8.06,8.06,0,0,1,2.3-2.8,5,5,0,0,1,3.2-.9,5.94,5.94,0,0,1,4.9,2.1,9.43,9.43,0,0,1,1.8,5.9v12h-4.6v-12Z"/><path class="cls-3" d="M309,114.87a7.23,7.23,0,0,1-3-3,10,10,0,0,1-1-4.8v-2.7a9.88,9.88,0,0,1,1-4.7,7.23,7.23,0,0,1,3-3,9.88,9.88,0,0,1,4.7-1,10.24,10.24,0,0,1,5.5,1.5,7.72,7.72,0,0,1,1.9,1.7l-3.1,2.9a5.94,5.94,0,0,0-1.8-1.3,5.38,5.38,0,0,0-2.2-.4,4.86,4.86,0,0,0-3.3,1.1,4.46,4.46,0,0,0-1.2,3.3v2.7a4.31,4.31,0,0,0,1.2,3.3,4.46,4.46,0,0,0,3.3,1.2,5.45,5.45,0,0,0,2.2-.5,5.94,5.94,0,0,0,1.8-1.3l3.1,3.1a6.27,6.27,0,0,1-1.9,1.7,11.18,11.18,0,0,1-2.5,1.1,13.61,13.61,0,0,1-3,.4,15.33,15.33,0,0,1-4.7-1.3"/><path class="cls-3" d="M328.59,114.87a7.23,7.23,0,0,1-3-3,10,10,0,0,1-1.1-4.8v-2.2a11.17,11.17,0,0,1,1-5,7.49,7.49,0,0,1,2.9-3.2,8.49,8.49,0,0,1,4.6-1.1,7.37,7.37,0,0,1,4.4,1.3,8.28,8.28,0,0,1,2.8,3.7,16.44,16.44,0,0,1,.9,5.8v1.3h-13.5v-3.3h9.2v-.2a5.16,5.16,0,0,0-1.2-3.2,3.14,3.14,0,0,0-2.6-1.1,3.94,3.94,0,0,0-3.2,1.3,5.18,5.18,0,0,0-1.1,3.6v2.5a4.55,4.55,0,0,0,1.2,3.4,4.7,4.7,0,0,0,3.4,1.2,5.38,5.38,0,0,0,2.2-.4,8.17,8.17,0,0,0,2-1.2l3,2.8a11.05,11.05,0,0,1-3.4,2.2,10.36,10.36,0,0,1-3.8.8,13,13,0,0,1-4.7-1.2"/><polygon class="cls-4" points="79.89 40.89 79.89 63.79 68.69 67.69 68.69 59.29 54.59 64.59 54.59 77.09 79.19 68.09 79.19 128.99 43.29 114.29 43.29 100.09 54.19 95.89 54.19 105.59 68.69 111.09 68.69 85.29 43.29 94.89 43.29 55.49 79.89 40.89"/><path class="cls-4" d="M118.29,55.92v58.43l-35.8,14.14V40.89Zm-10.8,49.47V61.89l-13.9-5.4v54.9Z"/></g></svg>